<mxfile host="app.diagrams.net" modified="2023-12-22T06:20:59.496Z" agent="Mozilla/5.0 (Windows NT 10.0; Win64; x64) AppleWebKit/537.36 (KHTML, like Gecko) Chrome/120.0.0.0 Safari/537.36 Edg/120.0.0.0" etag="H7btPyViArlszA636YGW" version="22.1.11" type="github">
  <diagram id="C5RBs43oDa-KdzZeNtuy" name="Page-1">
    <mxGraphModel dx="1397" dy="790" grid="1" gridSize="10" guides="1" tooltips="1" connect="1" arrows="1" fold="1" page="1" pageScale="1" pageWidth="827" pageHeight="1169" math="0" shadow="0">
      <root>
        <mxCell id="WIyWlLk6GJQsqaUBKTNV-0" />
        <mxCell id="WIyWlLk6GJQsqaUBKTNV-1" parent="WIyWlLk6GJQsqaUBKTNV-0" />
        <mxCell id="Ge5PILDXDoXqqKDuEAkY-0" value="&lt;i style=&quot;border-color: var(--border-color); font-weight: 400;&quot;&gt;&amp;lt;&amp;lt;Interface&amp;gt;&amp;gt;&lt;/i&gt;&lt;br style=&quot;border-color: var(--border-color); font-weight: 400;&quot;&gt;DerateStrategy" style="swimlane;fontStyle=1;align=center;verticalAlign=top;childLayout=stackLayout;horizontal=1;startSize=40;horizontalStack=0;resizeParent=1;resizeParentMax=0;resizeLast=0;collapsible=1;marginBottom=0;whiteSpace=wrap;html=1;" vertex="1" parent="WIyWlLk6GJQsqaUBKTNV-1">
          <mxGeometry x="100" y="170" width="240" height="124" as="geometry">
            <mxRectangle x="50" y="80" width="130" height="40" as="alternateBounds" />
          </mxGeometry>
        </mxCell>
        <mxCell id="Ge5PILDXDoXqqKDuEAkY-2" value="" style="line;strokeWidth=1;fillColor=none;align=left;verticalAlign=middle;spacingTop=-1;spacingLeft=3;spacingRight=3;rotatable=0;labelPosition=right;points=[];portConstraint=eastwest;strokeColor=inherit;" vertex="1" parent="Ge5PILDXDoXqqKDuEAkY-0">
          <mxGeometry y="40" width="240" height="8" as="geometry" />
        </mxCell>
        <mxCell id="Ge5PILDXDoXqqKDuEAkY-3" value="+ target(): String[]&lt;br&gt;+ calcuDerate(): IDerate" style="text;strokeColor=none;fillColor=none;align=left;verticalAlign=top;spacingLeft=4;spacingRight=4;overflow=hidden;rotatable=0;points=[[0,0.5],[1,0.5]];portConstraint=eastwest;whiteSpace=wrap;html=1;" vertex="1" parent="Ge5PILDXDoXqqKDuEAkY-0">
          <mxGeometry y="48" width="240" height="76" as="geometry" />
        </mxCell>
        <mxCell id="Ge5PILDXDoXqqKDuEAkY-5" value="&lt;p style=&quot;margin:0px;margin-top:4px;text-align:center;&quot;&gt;&lt;i&gt;&amp;lt;&amp;lt;Interface&amp;gt;&amp;gt;&lt;/i&gt;&lt;br&gt;&lt;b&gt;IDerate&lt;/b&gt;&lt;/p&gt;&lt;hr size=&quot;1&quot;&gt;&lt;p style=&quot;margin:0px;margin-left:4px;&quot;&gt;+ getDerateType(): DerateType&lt;br&gt;+ getDerateValue(): int&lt;/p&gt;" style="verticalAlign=top;align=left;overflow=fill;fontSize=12;fontFamily=Helvetica;html=1;whiteSpace=wrap;" vertex="1" parent="WIyWlLk6GJQsqaUBKTNV-1">
          <mxGeometry x="414" y="170" width="190" height="108" as="geometry" />
        </mxCell>
        <mxCell id="Ge5PILDXDoXqqKDuEAkY-6" value="return" style="html=1;verticalAlign=bottom;endArrow=open;dashed=1;endSize=8;curved=0;rounded=0;exitX=0.992;exitY=0.131;exitDx=0;exitDy=0;exitPerimeter=0;" edge="1" parent="WIyWlLk6GJQsqaUBKTNV-1" source="Ge5PILDXDoXqqKDuEAkY-3" target="Ge5PILDXDoXqqKDuEAkY-5">
          <mxGeometry relative="1" as="geometry">
            <mxPoint x="440" y="200" as="sourcePoint" />
            <mxPoint x="360" y="200" as="targetPoint" />
          </mxGeometry>
        </mxCell>
        <mxCell id="Ge5PILDXDoXqqKDuEAkY-7" value="Enum DerateType" style="html=1;whiteSpace=wrap;" vertex="1" parent="WIyWlLk6GJQsqaUBKTNV-1">
          <mxGeometry x="670" y="199" width="110" height="50" as="geometry" />
        </mxCell>
        <mxCell id="Ge5PILDXDoXqqKDuEAkY-9" value="return" style="html=1;verticalAlign=bottom;endArrow=open;dashed=1;endSize=8;curved=0;rounded=0;" edge="1" parent="WIyWlLk6GJQsqaUBKTNV-1" source="Ge5PILDXDoXqqKDuEAkY-5" target="Ge5PILDXDoXqqKDuEAkY-7">
          <mxGeometry relative="1" as="geometry">
            <mxPoint x="604" y="212" as="sourcePoint" />
            <mxPoint x="738" y="200" as="targetPoint" />
          </mxGeometry>
        </mxCell>
        <mxCell id="Ge5PILDXDoXqqKDuEAkY-11" style="edgeStyle=orthogonalEdgeStyle;rounded=0;orthogonalLoop=1;jettySize=auto;html=1;" edge="1" parent="WIyWlLk6GJQsqaUBKTNV-1" source="Ge5PILDXDoXqqKDuEAkY-10">
          <mxGeometry relative="1" as="geometry">
            <mxPoint x="300.0000000000002" y="550" as="targetPoint" />
          </mxGeometry>
        </mxCell>
        <mxCell id="Ge5PILDXDoXqqKDuEAkY-13" value="是" style="edgeLabel;html=1;align=center;verticalAlign=middle;resizable=0;points=[];" vertex="1" connectable="0" parent="Ge5PILDXDoXqqKDuEAkY-11">
          <mxGeometry x="0.3356" relative="1" as="geometry">
            <mxPoint as="offset" />
          </mxGeometry>
        </mxCell>
        <mxCell id="Ge5PILDXDoXqqKDuEAkY-12" style="edgeStyle=orthogonalEdgeStyle;rounded=0;orthogonalLoop=1;jettySize=auto;html=1;" edge="1" parent="WIyWlLk6GJQsqaUBKTNV-1" source="Ge5PILDXDoXqqKDuEAkY-10">
          <mxGeometry relative="1" as="geometry">
            <mxPoint x="490.0000000000002" y="550" as="targetPoint" />
          </mxGeometry>
        </mxCell>
        <mxCell id="Ge5PILDXDoXqqKDuEAkY-14" value="否" style="edgeLabel;html=1;align=center;verticalAlign=middle;resizable=0;points=[];" vertex="1" connectable="0" parent="Ge5PILDXDoXqqKDuEAkY-12">
          <mxGeometry x="0.347" y="-1" relative="1" as="geometry">
            <mxPoint as="offset" />
          </mxGeometry>
        </mxCell>
        <mxCell id="Ge5PILDXDoXqqKDuEAkY-10" value="是否需&lt;br&gt;充电订单" style="rhombus;whiteSpace=wrap;html=1;" vertex="1" parent="WIyWlLk6GJQsqaUBKTNV-1">
          <mxGeometry x="350" y="410" width="80" height="80" as="geometry" />
        </mxCell>
      </root>
    </mxGraphModel>
  </diagram>
</mxfile>
